<?xml version="1.0" encoding="utf-8" standalone="no"?>
<!DOCTYPE svg PUBLIC "-//W3C//DTD SVG 1.1//EN"
  "http://www.w3.org/Graphics/SVG/1.1/DTD/svg11.dtd">
<svg xmlns:xlink="http://www.w3.org/1999/xlink" width="468pt" height="520.56pt" viewBox="0 0 468 520.56" xmlns="http://www.w3.org/2000/svg" version="1.1">
 <metadata>
  <rdf:RDF xmlns:dc="http://purl.org/dc/elements/1.1/" xmlns:cc="http://creativecommons.org/ns#" xmlns:rdf="http://www.w3.org/1999/02/22-rdf-syntax-ns#">
   <cc:Work>
    <dc:type rdf:resource="http://purl.org/dc/dcmitype/StillImage"/>
    <dc:date>2026-04-29T01:36:11.112495</dc:date>
    <dc:format>image/svg+xml</dc:format>
    <dc:creator>
     <cc:Agent>
      <dc:title>Matplotlib v3.9.4, https://matplotlib.org/</dc:title>
     </cc:Agent>
    </dc:creator>
   </cc:Work>
  </rdf:RDF>
 </metadata>
 <defs>
  <style type="text/css">*{stroke-linejoin: round; stroke-linecap: butt}</style>
 </defs>
 <g id="figure_1">
  <g id="patch_1">
   <path d="M 0 520.56 
L 468 520.56 
L 468 0 
L 0 0 
z
" style="fill: #ffffff"/>
  </g>
  <g id="axes_1">
   <g id="patch_2">
    <path d="M 69.948 94.7916 
L 398.052 94.7916 
Q 402.516 94.7916 402.516 91.4652 
L 402.516 59.0328 
Q 402.516 55.7064 398.052 55.7064 
L 69.948 55.7064 
Q 65.484 55.7064 65.484 59.0328 
L 65.484 91.4652 
Q 65.484 94.7916 69.948 94.7916 
z
" clip-path="url(#p06223ac68c)" style="fill: #f3f4f6; stroke: #444444; stroke-linejoin: miter"/>
   </g>
   <g id="patch_3">
    <path d="M 69.948 144.6876 
L 398.052 144.6876 
Q 402.516 144.6876 402.516 141.3612 
L 402.516 108.9288 
Q 402.516 105.6024 398.052 105.6024 
L 69.948 105.6024 
Q 65.484 105.6024 65.484 108.9288 
L 65.484 141.3612 
Q 65.484 144.6876 69.948 144.6876 
z
" clip-path="url(#p06223ac68c)" style="fill: #e0e7ff; stroke: #444444; stroke-linejoin: miter"/>
   </g>
   <g id="patch_4">
    <path d="M 69.948 194.5836 
L 398.052 194.5836 
Q 402.516 194.5836 402.516 191.2572 
L 402.516 158.8248 
Q 402.516 155.4984 398.052 155.4984 
L 69.948 155.4984 
Q 65.484 155.4984 65.484 158.8248 
L 65.484 191.2572 
Q 65.484 194.5836 69.948 194.5836 
z
" clip-path="url(#p06223ac68c)" style="fill: #dbeafe; stroke: #444444; stroke-linejoin: miter"/>
   </g>
   <g id="patch_5">
    <path d="M 69.948 244.4796 
L 398.052 244.4796 
Q 402.516 244.4796 402.516 241.1532 
L 402.516 208.7208 
Q 402.516 205.3944 398.052 205.3944 
L 69.948 205.3944 
Q 65.484 205.3944 65.484 208.7208 
L 65.484 241.1532 
Q 65.484 244.4796 69.948 244.4796 
z
" clip-path="url(#p06223ac68c)" style="fill: #f3f4f6; stroke: #444444; stroke-linejoin: miter"/>
   </g>
   <g id="patch_6">
    <path d="M 69.948 294.3756 
L 398.052 294.3756 
Q 402.516 294.3756 402.516 291.0492 
L 402.516 258.6168 
Q 402.516 255.2904 398.052 255.2904 
L 69.948 255.2904 
Q 65.484 255.2904 65.484 258.6168 
L 65.484 291.0492 
Q 65.484 294.3756 69.948 294.3756 
z
" clip-path="url(#p06223ac68c)" style="fill: #e0e7ff; stroke: #444444; stroke-linejoin: miter"/>
   </g>
   <g id="patch_7">
    <path d="M 69.948 344.2716 
L 398.052 344.2716 
Q 402.516 344.2716 402.516 340.9452 
L 402.516 308.5128 
Q 402.516 305.1864 398.052 305.1864 
L 69.948 305.1864 
Q 65.484 305.1864 65.484 308.5128 
L 65.484 340.9452 
Q 65.484 344.2716 69.948 344.2716 
z
" clip-path="url(#p06223ac68c)" style="fill: #dcfce7; stroke: #444444; stroke-linejoin: miter"/>
   </g>
   <g id="patch_8">
    <path d="M 69.948 394.1676 
L 398.052 394.1676 
Q 402.516 394.1676 402.516 390.8412 
L 402.516 358.4088 
Q 402.516 355.0824 398.052 355.0824 
L 69.948 355.0824 
Q 65.484 355.0824 65.484 358.4088 
L 65.484 390.8412 
Q 65.484 394.1676 69.948 394.1676 
z
" clip-path="url(#p06223ac68c)" style="fill: #f3f4f6; stroke: #444444; stroke-linejoin: miter"/>
   </g>
   <g id="patch_9">
    <path d="M 69.948 444.0636 
L 398.052 444.0636 
Q 402.516 444.0636 402.516 440.7372 
L 402.516 408.3048 
Q 402.516 404.9784 398.052 404.9784 
L 69.948 404.9784 
Q 65.484 404.9784 65.484 408.3048 
L 65.484 440.7372 
Q 65.484 444.0636 69.948 444.0636 
z
" clip-path="url(#p06223ac68c)" style="fill: #f3f4f6; stroke: #444444; stroke-linejoin: miter"/>
   </g>
   <g id="text_1">
    <!-- Shared Pre-Norm Transformer Encoder Block -->
    <g transform="translate(92.015937 31.59) scale(0.14 -0.14)">
     <defs>
      <path id="Helvetica-53" d="M 894 1481 
Q 916 1091 1078 847 
Q 1388 391 2169 391 
Q 2519 391 2806 491 
Q 3363 684 3363 1184 
Q 3363 1559 3128 1719 
Q 2891 1875 2384 1991 
L 1763 2131 
Q 1153 2269 900 2434 
Q 463 2722 463 3294 
Q 463 3913 891 4309 
Q 1319 4706 2103 4706 
Q 2825 4706 3329 4357 
Q 3834 4009 3834 3244 
L 3250 3244 
Q 3203 3613 3050 3809 
Q 2766 4169 2084 4169 
Q 1534 4169 1293 3937 
Q 1053 3706 1053 3400 
Q 1053 3063 1334 2906 
Q 1519 2806 2169 2656 
L 2813 2509 
Q 3278 2403 3531 2219 
Q 3969 1897 3969 1284 
Q 3969 522 3414 194 
Q 2859 -134 2125 -134 
Q 1269 -134 784 303 
Q 300 738 309 1481 
L 894 1481 
z
M 2150 4716 
L 2150 4716 
z
" transform="scale(0.015625)"/>
      <path id="Helvetica-68" d="M 413 4606 
L 975 4606 
L 975 2894 
Q 1175 3147 1334 3250 
Q 1606 3428 2013 3428 
Q 2741 3428 3000 2919 
Q 3141 2641 3141 2147 
L 3141 0 
L 2563 0 
L 2563 2109 
Q 2563 2478 2469 2650 
Q 2316 2925 1894 2925 
Q 1544 2925 1259 2684 
Q 975 2444 975 1775 
L 975 0 
L 413 0 
L 413 4606 
z
" transform="scale(0.015625)"/>
      <path id="Helvetica-61" d="M 844 891 
Q 844 647 1022 506 
Q 1200 366 1444 366 
Q 1741 366 2019 503 
Q 2488 731 2488 1250 
L 2488 1703 
Q 2384 1638 2221 1594 
Q 2059 1550 1903 1531 
L 1563 1488 
Q 1256 1447 1103 1359 
Q 844 1213 844 891 
z
M 2206 2028 
Q 2400 2053 2466 2191 
Q 2503 2266 2503 2406 
Q 2503 2694 2298 2823 
Q 2094 2953 1713 2953 
Q 1272 2953 1088 2716 
Q 984 2584 953 2325 
L 428 2325 
Q 444 2944 830 3186 
Q 1216 3428 1725 3428 
Q 2316 3428 2684 3203 
Q 3050 2978 3050 2503 
L 3050 575 
Q 3050 488 3086 434 
Q 3122 381 3238 381 
Q 3275 381 3322 386 
Q 3369 391 3422 400 
L 3422 -16 
Q 3291 -53 3222 -62 
Q 3153 -72 3034 -72 
Q 2744 -72 2613 134 
Q 2544 244 2516 444 
Q 2344 219 2022 53 
Q 1700 -113 1313 -113 
Q 847 -113 551 170 
Q 256 453 256 878 
Q 256 1344 547 1600 
Q 838 1856 1309 1916 
L 2206 2028 
z
M 1741 3428 
L 1741 3428 
z
" transform="scale(0.015625)"/>
      <path id="Helvetica-72" d="M 428 3347 
L 963 3347 
L 963 2769 
Q 1028 2938 1284 3180 
Q 1541 3422 1875 3422 
Q 1891 3422 1928 3419 
Q 1966 3416 2056 3406 
L 2056 2813 
Q 2006 2822 1964 2825 
Q 1922 2828 1872 2828 
Q 1447 2828 1219 2554 
Q 991 2281 991 1925 
L 991 0 
L 428 0 
L 428 3347 
z
" transform="scale(0.015625)"/>
      <path id="Helvetica-65" d="M 1806 3422 
Q 2163 3422 2497 3255 
Q 2831 3088 3006 2822 
Q 3175 2569 3231 2231 
Q 3281 2000 3281 1494 
L 828 1494 
Q 844 984 1069 676 
Q 1294 369 1766 369 
Q 2206 369 2469 659 
Q 2619 828 2681 1050 
L 3234 1050 
Q 3213 866 3089 639 
Q 2966 413 2813 269 
Q 2556 19 2178 -69 
Q 1975 -119 1719 -119 
Q 1094 -119 659 336 
Q 225 791 225 1609 
Q 225 2416 662 2919 
Q 1100 3422 1806 3422 
z
M 2703 1941 
Q 2669 2306 2544 2525 
Q 2313 2931 1772 2931 
Q 1384 2931 1121 2651 
Q 859 2372 844 1941 
L 2703 1941 
z
M 1753 3428 
L 1753 3428 
z
" transform="scale(0.015625)"/>
      <path id="Helvetica-64" d="M 769 1634 
Q 769 1097 997 734 
Q 1225 372 1728 372 
Q 2119 372 2370 708 
Q 2622 1044 2622 1672 
Q 2622 2306 2362 2611 
Q 2103 2916 1722 2916 
Q 1297 2916 1033 2591 
Q 769 2266 769 1634 
z
M 1616 3406 
Q 2000 3406 2259 3244 
Q 2409 3150 2600 2916 
L 2600 4606 
L 3141 4606 
L 3141 0 
L 2634 0 
L 2634 466 
Q 2438 156 2169 18 
Q 1900 -119 1553 -119 
Q 994 -119 584 351 
Q 175 822 175 1603 
Q 175 2334 548 2870 
Q 922 3406 1616 3406 
z
" transform="scale(0.015625)"/>
      <path id="Helvetica-20" transform="scale(0.015625)"/>
      <path id="Helvetica-50" d="M 547 4591 
L 2613 4591 
Q 3225 4591 3600 4245 
Q 3975 3900 3975 3275 
Q 3975 2738 3640 2339 
Q 3306 1941 2613 1941 
L 1169 1941 
L 1169 0 
L 547 0 
L 547 4591 
z
M 3347 3272 
Q 3347 3778 2972 3959 
Q 2766 4056 2406 4056 
L 1169 4056 
L 1169 2466 
L 2406 2466 
Q 2825 2466 3086 2644 
Q 3347 2822 3347 3272 
z
" transform="scale(0.015625)"/>
      <path id="Helvetica-2d" d="M 266 2072 
L 1834 2072 
L 1834 1494 
L 266 1494 
L 266 2072 
z
" transform="scale(0.015625)"/>
      <path id="Helvetica-4e" d="M 488 4591 
L 1222 4591 
L 3541 872 
L 3541 4591 
L 4131 4591 
L 4131 0 
L 3434 0 
L 1081 3716 
L 1081 0 
L 488 0 
L 488 4591 
z
M 2269 4591 
L 2269 4591 
z
" transform="scale(0.015625)"/>
      <path id="Helvetica-6f" d="M 1741 363 
Q 2300 363 2508 786 
Q 2716 1209 2716 1728 
Q 2716 2197 2566 2491 
Q 2328 2953 1747 2953 
Q 1231 2953 997 2559 
Q 763 2166 763 1609 
Q 763 1075 997 719 
Q 1231 363 1741 363 
z
M 1763 3444 
Q 2409 3444 2856 3012 
Q 3303 2581 3303 1744 
Q 3303 934 2909 406 
Q 2516 -122 1688 -122 
Q 997 -122 590 345 
Q 184 813 184 1600 
Q 184 2444 612 2944 
Q 1041 3444 1763 3444 
z
M 1744 3428 
L 1744 3428 
z
" transform="scale(0.015625)"/>
      <path id="Helvetica-6d" d="M 413 3347 
L 969 3347 
L 969 2872 
Q 1169 3119 1331 3231 
Q 1609 3422 1963 3422 
Q 2363 3422 2606 3225 
Q 2744 3113 2856 2894 
Q 3044 3163 3297 3292 
Q 3550 3422 3866 3422 
Q 4541 3422 4784 2934 
Q 4916 2672 4916 2228 
L 4916 0 
L 4331 0 
L 4331 2325 
Q 4331 2659 4164 2784 
Q 3997 2909 3756 2909 
Q 3425 2909 3186 2687 
Q 2947 2466 2947 1947 
L 2947 0 
L 2375 0 
L 2375 2184 
Q 2375 2525 2294 2681 
Q 2166 2916 1816 2916 
Q 1497 2916 1236 2669 
Q 975 2422 975 1775 
L 975 0 
L 413 0 
L 413 3347 
z
" transform="scale(0.015625)"/>
      <path id="Helvetica-54" d="M 3828 4591 
L 3828 4044 
L 2281 4044 
L 2281 0 
L 1650 0 
L 1650 4044 
L 103 4044 
L 103 4591 
L 3828 4591 
z
" transform="scale(0.015625)"/>
      <path id="Helvetica-6e" d="M 413 3347 
L 947 3347 
L 947 2872 
Q 1184 3166 1450 3294 
Q 1716 3422 2041 3422 
Q 2753 3422 3003 2925 
Q 3141 2653 3141 2147 
L 3141 0 
L 2569 0 
L 2569 2109 
Q 2569 2416 2478 2603 
Q 2328 2916 1934 2916 
Q 1734 2916 1606 2875 
Q 1375 2806 1200 2600 
Q 1059 2434 1017 2257 
Q 975 2081 975 1753 
L 975 0 
L 413 0 
L 413 3347 
z
M 1734 3428 
L 1734 3428 
z
" transform="scale(0.015625)"/>
      <path id="Helvetica-73" d="M 747 1050 
Q 772 769 888 619 
Q 1100 347 1625 347 
Q 1938 347 2175 483 
Q 2413 619 2413 903 
Q 2413 1119 2222 1231 
Q 2100 1300 1741 1391 
L 1294 1503 
Q 866 1609 663 1741 
Q 300 1969 300 2372 
Q 300 2847 642 3140 
Q 984 3434 1563 3434 
Q 2319 3434 2653 2991 
Q 2863 2709 2856 2384 
L 2325 2384 
Q 2309 2575 2191 2731 
Q 1997 2953 1519 2953 
Q 1200 2953 1036 2831 
Q 872 2709 872 2509 
Q 872 2291 1088 2159 
Q 1213 2081 1456 2022 
L 1828 1931 
Q 2434 1784 2641 1647 
Q 2969 1431 2969 969 
Q 2969 522 2630 197 
Q 2291 -128 1597 -128 
Q 850 -128 539 211 
Q 228 550 206 1050 
L 747 1050 
z
M 1578 3428 
L 1578 3428 
z
" transform="scale(0.015625)"/>
      <path id="Helvetica-66" d="M 553 3856 
Q 566 4206 675 4369 
Q 872 4656 1434 4656 
Q 1488 4656 1544 4653 
Q 1600 4650 1672 4644 
L 1672 4131 
Q 1584 4138 1545 4139 
Q 1506 4141 1472 4141 
Q 1216 4141 1166 4008 
Q 1116 3875 1116 3331 
L 1672 3331 
L 1672 2888 
L 1109 2888 
L 1109 0 
L 553 0 
L 553 2888 
L 88 2888 
L 88 3331 
L 553 3331 
L 553 3856 
z
" transform="scale(0.015625)"/>
      <path id="Helvetica-45" d="M 547 4591 
L 3894 4591 
L 3894 4028 
L 1153 4028 
L 1153 2634 
L 3688 2634 
L 3688 2103 
L 1153 2103 
L 1153 547 
L 3941 547 
L 3941 0 
L 547 0 
L 547 4591 
z
M 2244 4591 
L 2244 4591 
z
" transform="scale(0.015625)"/>
      <path id="Helvetica-63" d="M 1703 3444 
Q 2269 3444 2623 3169 
Q 2978 2894 3050 2222 
L 2503 2222 
Q 2453 2531 2275 2736 
Q 2097 2941 1703 2941 
Q 1166 2941 934 2416 
Q 784 2075 784 1575 
Q 784 1072 996 728 
Q 1209 384 1666 384 
Q 2016 384 2220 598 
Q 2425 813 2503 1184 
L 3050 1184 
Q 2956 519 2581 211 
Q 2206 -97 1622 -97 
Q 966 -97 575 383 
Q 184 863 184 1581 
Q 184 2463 612 2953 
Q 1041 3444 1703 3444 
z
M 1616 3428 
L 1616 3428 
z
" transform="scale(0.015625)"/>
      <path id="Helvetica-42" d="M 2213 2650 
Q 2606 2650 2825 2759 
Q 3169 2931 3169 3378 
Q 3169 3828 2803 3984 
Q 2597 4072 2191 4072 
L 1081 4072 
L 1081 2650 
L 2213 2650 
z
M 2422 531 
Q 2994 531 3238 863 
Q 3391 1072 3391 1369 
Q 3391 1869 2944 2050 
Q 2706 2147 2316 2147 
L 1081 2147 
L 1081 531 
L 2422 531 
z
M 472 4591 
L 2444 4591 
Q 3250 4591 3591 4109 
Q 3791 3825 3791 3453 
Q 3791 3019 3544 2741 
Q 3416 2594 3175 2472 
Q 3528 2338 3703 2169 
Q 4013 1869 4013 1341 
Q 4013 897 3734 538 
Q 3319 0 2413 0 
L 472 0 
L 472 4591 
z
" transform="scale(0.015625)"/>
      <path id="Helvetica-6c" d="M 428 4591 
L 991 4591 
L 991 0 
L 428 0 
L 428 4591 
z
" transform="scale(0.015625)"/>
      <path id="Helvetica-6b" d="M 400 4591 
L 941 4591 
L 941 1925 
L 2384 3347 
L 3103 3347 
L 1822 2094 
L 3175 0 
L 2456 0 
L 1413 1688 
L 941 1256 
L 941 0 
L 400 0 
L 400 4591 
z
" transform="scale(0.015625)"/>
     </defs>
     <use xlink:href="#Helvetica-53"/>
     <use xlink:href="#Helvetica-68" x="66.699219"/>
     <use xlink:href="#Helvetica-61" x="122.314453"/>
     <use xlink:href="#Helvetica-72" x="177.929688"/>
     <use xlink:href="#Helvetica-65" x="211.230469"/>
     <use xlink:href="#Helvetica-64" x="266.845703"/>
     <use xlink:href="#Helvetica-20" x="322.460938"/>
     <use xlink:href="#Helvetica-50" x="350.244141"/>
     <use xlink:href="#Helvetica-72" x="416.943359"/>
     <use xlink:href="#Helvetica-65" x="450.244141"/>
     <use xlink:href="#Helvetica-2d" x="505.859375"/>
     <use xlink:href="#Helvetica-4e" x="539.160156"/>
     <use xlink:href="#Helvetica-6f" x="611.376953"/>
     <use xlink:href="#Helvetica-72" x="666.992188"/>
     <use xlink:href="#Helvetica-6d" x="700.292969"/>
     <use xlink:href="#Helvetica-20" x="783.59375"/>
     <use xlink:href="#Helvetica-54" x="811.376953"/>
     <use xlink:href="#Helvetica-72" x="872.460938"/>
     <use xlink:href="#Helvetica-61" x="905.761719"/>
     <use xlink:href="#Helvetica-6e" x="961.376953"/>
     <use xlink:href="#Helvetica-73" x="1016.992188"/>
     <use xlink:href="#Helvetica-66" x="1066.992188"/>
     <use xlink:href="#Helvetica-6f" x="1094.775391"/>
     <use xlink:href="#Helvetica-72" x="1150.390625"/>
     <use xlink:href="#Helvetica-6d" x="1183.691406"/>
     <use xlink:href="#Helvetica-65" x="1266.992188"/>
     <use xlink:href="#Helvetica-72" x="1322.607422"/>
     <use xlink:href="#Helvetica-20" x="1355.908203"/>
     <use xlink:href="#Helvetica-45" x="1383.691406"/>
     <use xlink:href="#Helvetica-6e" x="1450.390625"/>
     <use xlink:href="#Helvetica-63" x="1506.005859"/>
     <use xlink:href="#Helvetica-6f" x="1556.005859"/>
     <use xlink:href="#Helvetica-64" x="1611.621094"/>
     <use xlink:href="#Helvetica-65" x="1667.236328"/>
     <use xlink:href="#Helvetica-72" x="1722.851562"/>
     <use xlink:href="#Helvetica-20" x="1756.152344"/>
     <use xlink:href="#Helvetica-42" x="1783.935547"/>
     <use xlink:href="#Helvetica-6c" x="1850.634766"/>
     <use xlink:href="#Helvetica-6f" x="1872.851562"/>
     <use xlink:href="#Helvetica-63" x="1928.466797"/>
     <use xlink:href="#Helvetica-6b" x="1978.466797"/>
    </g>
   </g>
   <g id="text_2">
    <!-- Identical across all 4 variants — controls confound from encoder choice. -->
    <g style="fill: #666666" transform="translate(90.438047 50.301) scale(0.09 -0.09)">
     <defs>
      <path id="Helvetica-49" d="M 628 4591 
L 1256 4591 
L 1256 0 
L 628 0 
L 628 4591 
z
" transform="scale(0.015625)"/>
      <path id="Helvetica-74" d="M 525 4281 
L 1094 4281 
L 1094 3347 
L 1628 3347 
L 1628 2888 
L 1094 2888 
L 1094 703 
Q 1094 528 1213 469 
Q 1278 434 1431 434 
Q 1472 434 1519 436 
Q 1566 438 1628 444 
L 1628 0 
Q 1531 -28 1426 -40 
Q 1322 -53 1200 -53 
Q 806 -53 665 148 
Q 525 350 525 672 
L 525 2888 
L 72 2888 
L 72 3347 
L 525 3347 
L 525 4281 
z
" transform="scale(0.015625)"/>
      <path id="Helvetica-69" d="M 413 3331 
L 984 3331 
L 984 0 
L 413 0 
L 413 3331 
z
M 413 4591 
L 984 4591 
L 984 3953 
L 413 3953 
L 413 4591 
z
" transform="scale(0.015625)"/>
      <path id="Helvetica-34" d="M 2116 1584 
L 2116 3613 
L 681 1584 
L 2116 1584 
z
M 2125 0 
L 2125 1094 
L 163 1094 
L 163 1644 
L 2213 4488 
L 2688 4488 
L 2688 1584 
L 3347 1584 
L 3347 1094 
L 2688 1094 
L 2688 0 
L 2125 0 
z
" transform="scale(0.015625)"/>
      <path id="Helvetica-76" d="M 688 3347 
L 1581 622 
L 2516 3347 
L 3131 3347 
L 1869 0 
L 1269 0 
L 34 3347 
L 688 3347 
z
" transform="scale(0.015625)"/>
      <path id="Helvetica-2014" d="M 753 2000 
L 5644 2000 
L 5644 1541 
L 753 1541 
L 753 2000 
z
" transform="scale(0.015625)"/>
      <path id="Helvetica-75" d="M 975 3347 
L 975 1125 
Q 975 869 1056 706 
Q 1206 406 1616 406 
Q 2203 406 2416 931 
Q 2531 1213 2531 1703 
L 2531 3347 
L 3094 3347 
L 3094 0 
L 2563 0 
L 2569 494 
Q 2459 303 2297 172 
Q 1975 -91 1516 -91 
Q 800 -91 541 388 
Q 400 644 400 1072 
L 400 3347 
L 975 3347 
z
M 1747 3428 
L 1747 3428 
z
" transform="scale(0.015625)"/>
      <path id="Helvetica-2e" d="M 547 681 
L 1200 681 
L 1200 0 
L 547 0 
L 547 681 
z
" transform="scale(0.015625)"/>
     </defs>
     <use xlink:href="#Helvetica-49"/>
     <use xlink:href="#Helvetica-64" x="27.783203"/>
     <use xlink:href="#Helvetica-65" x="83.398438"/>
     <use xlink:href="#Helvetica-6e" x="139.013672"/>
     <use xlink:href="#Helvetica-74" x="194.628906"/>
     <use xlink:href="#Helvetica-69" x="222.412109"/>
     <use xlink:href="#Helvetica-63" x="244.628906"/>
     <use xlink:href="#Helvetica-61" x="294.628906"/>
     <use xlink:href="#Helvetica-6c" x="350.244141"/>
     <use xlink:href="#Helvetica-20" x="372.460938"/>
     <use xlink:href="#Helvetica-61" x="400.244141"/>
     <use xlink:href="#Helvetica-63" x="455.859375"/>
     <use xlink:href="#Helvetica-72" x="505.859375"/>
     <use xlink:href="#Helvetica-6f" x="539.160156"/>
     <use xlink:href="#Helvetica-73" x="594.775391"/>
     <use xlink:href="#Helvetica-73" x="644.775391"/>
     <use xlink:href="#Helvetica-20" x="694.775391"/>
     <use xlink:href="#Helvetica-61" x="722.558594"/>
     <use xlink:href="#Helvetica-6c" x="778.173828"/>
     <use xlink:href="#Helvetica-6c" x="800.390625"/>
     <use xlink:href="#Helvetica-20" x="822.607422"/>
     <use xlink:href="#Helvetica-34" x="850.390625"/>
     <use xlink:href="#Helvetica-20" x="906.005859"/>
     <use xlink:href="#Helvetica-76" x="933.789062"/>
     <use xlink:href="#Helvetica-61" x="983.789062"/>
     <use xlink:href="#Helvetica-72" x="1039.404297"/>
     <use xlink:href="#Helvetica-69" x="1072.705078"/>
     <use xlink:href="#Helvetica-61" x="1094.921875"/>
     <use xlink:href="#Helvetica-6e" x="1150.537109"/>
     <use xlink:href="#Helvetica-74" x="1206.152344"/>
     <use xlink:href="#Helvetica-73" x="1233.935547"/>
     <use xlink:href="#Helvetica-20" x="1283.935547"/>
     <use xlink:href="#Helvetica-2014" x="1311.71875"/>
     <use xlink:href="#Helvetica-20" x="1411.71875"/>
     <use xlink:href="#Helvetica-63" x="1439.501953"/>
     <use xlink:href="#Helvetica-6f" x="1489.501953"/>
     <use xlink:href="#Helvetica-6e" x="1545.117188"/>
     <use xlink:href="#Helvetica-74" x="1600.732422"/>
     <use xlink:href="#Helvetica-72" x="1628.515625"/>
     <use xlink:href="#Helvetica-6f" x="1661.816406"/>
     <use xlink:href="#Helvetica-6c" x="1717.431641"/>
     <use xlink:href="#Helvetica-73" x="1739.648438"/>
     <use xlink:href="#Helvetica-20" x="1789.648438"/>
     <use xlink:href="#Helvetica-63" x="1817.431641"/>
     <use xlink:href="#Helvetica-6f" x="1867.431641"/>
     <use xlink:href="#Helvetica-6e" x="1923.046875"/>
     <use xlink:href="#Helvetica-66" x="1978.662109"/>
     <use xlink:href="#Helvetica-6f" x="2006.445312"/>
     <use xlink:href="#Helvetica-75" x="2062.060547"/>
     <use xlink:href="#Helvetica-6e" x="2117.675781"/>
     <use xlink:href="#Helvetica-64" x="2173.291016"/>
     <use xlink:href="#Helvetica-20" x="2228.90625"/>
     <use xlink:href="#Helvetica-66" x="2256.689453"/>
     <use xlink:href="#Helvetica-72" x="2284.472656"/>
     <use xlink:href="#Helvetica-6f" x="2317.773438"/>
     <use xlink:href="#Helvetica-6d" x="2373.388672"/>
     <use xlink:href="#Helvetica-20" x="2456.689453"/>
     <use xlink:href="#Helvetica-65" x="2484.472656"/>
     <use xlink:href="#Helvetica-6e" x="2540.087891"/>
     <use xlink:href="#Helvetica-63" x="2595.703125"/>
     <use xlink:href="#Helvetica-6f" x="2645.703125"/>
     <use xlink:href="#Helvetica-64" x="2701.318359"/>
     <use xlink:href="#Helvetica-65" x="2756.933594"/>
     <use xlink:href="#Helvetica-72" x="2812.548828"/>
     <use xlink:href="#Helvetica-20" x="2845.849609"/>
     <use xlink:href="#Helvetica-63" x="2873.632812"/>
     <use xlink:href="#Helvetica-68" x="2923.632812"/>
     <use xlink:href="#Helvetica-6f" x="2979.248047"/>
     <use xlink:href="#Helvetica-69" x="3034.863281"/>
     <use xlink:href="#Helvetica-63" x="3057.080078"/>
     <use xlink:href="#Helvetica-65" x="3107.080078"/>
     <use xlink:href="#Helvetica-2e" x="3162.695312"/>
    </g>
   </g>
   <g id="text_3">
    <!-- Input  x  (B, L, d_model) -->
    <g transform="translate(180.644531 77.852125) scale(0.1 -0.1)">
     <defs>
      <path id="Helvetica-70" d="M 1825 378 
Q 2219 378 2480 708 
Q 2741 1038 2741 1694 
Q 2741 2094 2625 2381 
Q 2406 2934 1825 2934 
Q 1241 2934 1025 2350 
Q 909 2038 909 1556 
Q 909 1169 1025 897 
Q 1244 378 1825 378 
z
M 369 3331 
L 916 3331 
L 916 2888 
Q 1084 3116 1284 3241 
Q 1569 3428 1953 3428 
Q 2522 3428 2919 2992 
Q 3316 2556 3316 1747 
Q 3316 653 2744 184 
Q 2381 -113 1900 -113 
Q 1522 -113 1266 53 
Q 1116 147 931 375 
L 931 -1334 
L 369 -1334 
L 369 3331 
z
" transform="scale(0.015625)"/>
      <path id="Helvetica-78" d="M 94 3347 
L 822 3347 
L 1591 2169 
L 2369 3347 
L 3053 3331 
L 1925 1716 
L 3103 0 
L 2384 0 
L 1553 1256 
L 747 0 
L 34 0 
L 1213 1716 
L 94 3347 
z
" transform="scale(0.015625)"/>
      <path id="Helvetica-28" d="M 1894 4666 
Q 1403 3713 1256 3263 
Q 1034 2578 1034 1681 
Q 1034 775 1288 25 
Q 1444 -438 1903 -1306 
L 1525 -1306 
Q 1069 -594 959 -397 
Q 850 -200 722 138 
Q 547 600 478 1125 
Q 444 1397 444 1644 
Q 444 2569 734 3291 
Q 919 3750 1503 4666 
L 1894 4666 
z
" transform="scale(0.015625)"/>
      <path id="Helvetica-2c" d="M 531 -653 
Q 747 -616 834 -350 
Q 881 -209 881 -78 
Q 881 -56 879 -39 
Q 878 -22 872 0 
L 531 0 
L 531 681 
L 1200 681 
L 1200 50 
Q 1200 -322 1050 -603 
Q 900 -884 531 -950 
L 531 -653 
z
" transform="scale(0.015625)"/>
      <path id="Helvetica-4c" d="M 488 4591 
L 1109 4591 
L 1109 547 
L 3434 547 
L 3434 0 
L 488 0 
L 488 4591 
z
" transform="scale(0.015625)"/>
      <path id="Helvetica-5f" d="M 0 -800 
L 0 -484 
L 3559 -484 
L 3559 -800 
L 0 -800 
z
" transform="scale(0.015625)"/>
      <path id="Helvetica-29" d="M 222 -1306 
Q 719 -338 863 106 
Q 1081 778 1081 1681 
Q 1081 2584 828 3334 
Q 672 3797 213 4666 
L 591 4666 
Q 1072 3897 1173 3717 
Q 1275 3538 1394 3222 
Q 1544 2831 1608 2450 
Q 1672 2069 1672 1716 
Q 1672 791 1378 66 
Q 1194 -400 613 -1306 
L 222 -1306 
z
" transform="scale(0.015625)"/>
     </defs>
     <use xlink:href="#Helvetica-49"/>
     <use xlink:href="#Helvetica-6e" x="27.783203"/>
     <use xlink:href="#Helvetica-70" x="83.398438"/>
     <use xlink:href="#Helvetica-75" x="139.013672"/>
     <use xlink:href="#Helvetica-74" x="194.628906"/>
     <use xlink:href="#Helvetica-20" x="222.412109"/>
     <use xlink:href="#Helvetica-20" x="250.195312"/>
     <use xlink:href="#Helvetica-78" x="277.978516"/>
     <use xlink:href="#Helvetica-20" x="327.978516"/>
     <use xlink:href="#Helvetica-20" x="355.761719"/>
     <use xlink:href="#Helvetica-28" x="383.544922"/>
     <use xlink:href="#Helvetica-42" x="416.845703"/>
     <use xlink:href="#Helvetica-2c" x="483.544922"/>
     <use xlink:href="#Helvetica-20" x="511.328125"/>
     <use xlink:href="#Helvetica-4c" x="539.111328"/>
     <use xlink:href="#Helvetica-2c" x="594.726562"/>
     <use xlink:href="#Helvetica-20" x="622.509766"/>
     <use xlink:href="#Helvetica-64" x="650.292969"/>
     <use xlink:href="#Helvetica-5f" x="705.908203"/>
     <use xlink:href="#Helvetica-6d" x="761.523438"/>
     <use xlink:href="#Helvetica-6f" x="844.824219"/>
     <use xlink:href="#Helvetica-64" x="900.439453"/>
     <use xlink:href="#Helvetica-65" x="956.054688"/>
     <use xlink:href="#Helvetica-6c" x="1011.669922"/>
     <use xlink:href="#Helvetica-29" x="1033.886719"/>
    </g>
   </g>
   <g id="patch_10">
    <path d="M 234 95.126595 
Q 234 95.582798 234 94.697359 
" style="fill: none; stroke: #444444; stroke-width: 1.2; stroke-linecap: round"/>
    <path d="M 236.2 90.297359 
L 234 94.697359 
L 231.8 90.297359 
" style="fill: none; stroke: #444444; stroke-width: 1.2; stroke-linecap: round"/>
   </g>
   <g id="text_4">
    <!-- LayerNorm (pre-norm) -->
    <g transform="translate(184.272656 127.718438) scale(0.1 -0.1)">
     <defs>
      <path id="Helvetica-79" d="M 2503 3347 
L 3125 3347 
Q 3006 3025 2597 1878 
Q 2291 1016 2084 472 
Q 1597 -809 1397 -1090 
Q 1197 -1372 709 -1372 
Q 591 -1372 527 -1362 
Q 463 -1353 369 -1328 
L 369 -816 
Q 516 -856 581 -865 
Q 647 -875 697 -875 
Q 853 -875 926 -823 
Q 1000 -772 1050 -697 
Q 1066 -672 1162 -440 
Q 1259 -209 1303 -97 
L 66 3347 
L 703 3347 
L 1600 622 
L 2503 3347 
z
M 1597 3428 
L 1597 3428 
z
" transform="scale(0.015625)"/>
     </defs>
     <use xlink:href="#Helvetica-4c"/>
     <use xlink:href="#Helvetica-61" x="55.615234"/>
     <use xlink:href="#Helvetica-79" x="111.230469"/>
     <use xlink:href="#Helvetica-65" x="161.230469"/>
     <use xlink:href="#Helvetica-72" x="216.845703"/>
     <use xlink:href="#Helvetica-4e" x="250.146484"/>
     <use xlink:href="#Helvetica-6f" x="322.363281"/>
     <use xlink:href="#Helvetica-72" x="377.978516"/>
     <use xlink:href="#Helvetica-6d" x="411.279297"/>
     <use xlink:href="#Helvetica-20" x="494.580078"/>
     <use xlink:href="#Helvetica-28" x="522.363281"/>
     <use xlink:href="#Helvetica-70" x="555.664062"/>
     <use xlink:href="#Helvetica-72" x="611.279297"/>
     <use xlink:href="#Helvetica-65" x="644.580078"/>
     <use xlink:href="#Helvetica-2d" x="700.195312"/>
     <use xlink:href="#Helvetica-6e" x="733.496094"/>
     <use xlink:href="#Helvetica-6f" x="789.111328"/>
     <use xlink:href="#Helvetica-72" x="844.726562"/>
     <use xlink:href="#Helvetica-6d" x="878.027344"/>
     <use xlink:href="#Helvetica-29" x="961.328125"/>
    </g>
   </g>
   <g id="patch_11">
    <path d="M 234 145.022595 
Q 234 145.478798 234 144.593359 
" style="fill: none; stroke: #444444; stroke-width: 1.2; stroke-linecap: round"/>
    <path d="M 236.2 140.193359 
L 234 144.593359 
L 231.8 140.193359 
" style="fill: none; stroke: #444444; stroke-width: 1.2; stroke-linecap: round"/>
   </g>
   <g id="text_5">
    <!-- Multi-Head Self-Attention -->
    <g transform="translate(178.421875 172.239281) scale(0.1 -0.1)">
     <defs>
      <path id="Helvetica-4d" d="M 472 4591 
L 1363 4591 
L 2681 709 
L 3991 4591 
L 4872 4591 
L 4872 0 
L 4281 0 
L 4281 2709 
Q 4281 2850 4287 3175 
Q 4294 3500 4294 3872 
L 2984 0 
L 2369 0 
L 1050 3872 
L 1050 3731 
Q 1050 3563 1058 3217 
Q 1066 2872 1066 2709 
L 1066 0 
L 472 0 
L 472 4591 
z
" transform="scale(0.015625)"/>
      <path id="Helvetica-48" d="M 503 4591 
L 1131 4591 
L 1131 2694 
L 3519 2694 
L 3519 4591 
L 4147 4591 
L 4147 0 
L 3519 0 
L 3519 2147 
L 1131 2147 
L 1131 0 
L 503 0 
L 503 4591 
z
" transform="scale(0.015625)"/>
      <path id="Helvetica-41" d="M 2844 1881 
L 2147 3909 
L 1406 1881 
L 2844 1881 
z
M 1822 4591 
L 2525 4591 
L 4191 0 
L 3509 0 
L 3044 1375 
L 1228 1375 
L 731 0 
L 94 0 
L 1822 4591 
z
" transform="scale(0.015625)"/>
     </defs>
     <use xlink:href="#Helvetica-4d"/>
     <use xlink:href="#Helvetica-75" x="83.300781"/>
     <use xlink:href="#Helvetica-6c" x="138.916016"/>
     <use xlink:href="#Helvetica-74" x="161.132812"/>
     <use xlink:href="#Helvetica-69" x="188.916016"/>
     <use xlink:href="#Helvetica-2d" x="211.132812"/>
     <use xlink:href="#Helvetica-48" x="244.433594"/>
     <use xlink:href="#Helvetica-65" x="316.650391"/>
     <use xlink:href="#Helvetica-61" x="372.265625"/>
     <use xlink:href="#Helvetica-64" x="427.880859"/>
     <use xlink:href="#Helvetica-20" x="483.496094"/>
     <use xlink:href="#Helvetica-53" x="511.279297"/>
     <use xlink:href="#Helvetica-65" x="577.978516"/>
     <use xlink:href="#Helvetica-6c" x="633.59375"/>
     <use xlink:href="#Helvetica-66" x="655.810547"/>
     <use xlink:href="#Helvetica-2d" x="683.59375"/>
     <use xlink:href="#Helvetica-41" x="716.894531"/>
     <use xlink:href="#Helvetica-74" x="783.59375"/>
     <use xlink:href="#Helvetica-74" x="811.376953"/>
     <use xlink:href="#Helvetica-65" x="839.160156"/>
     <use xlink:href="#Helvetica-6e" x="894.775391"/>
     <use xlink:href="#Helvetica-74" x="950.390625"/>
     <use xlink:href="#Helvetica-69" x="978.173828"/>
     <use xlink:href="#Helvetica-6f" x="1000.390625"/>
     <use xlink:href="#Helvetica-6e" x="1056.005859"/>
    </g>
    <!-- h=4 heads, d_k = d_model / h -->
    <g transform="translate(167.844531 182.931781) scale(0.1 -0.1)">
     <defs>
      <path id="Helvetica-3d" d="M 3547 2569 
L 3547 2044 
L 288 2044 
L 288 2569 
L 3547 2569 
z
M 3547 1228 
L 3547 694 
L 288 694 
L 288 1228 
L 3547 1228 
z
" transform="scale(0.015625)"/>
      <path id="Helvetica-2f" d="M 1456 4591 
L 1931 4591 
L 475 0 
L 0 0 
L 1456 4591 
z
" transform="scale(0.015625)"/>
     </defs>
     <use xlink:href="#Helvetica-68"/>
     <use xlink:href="#Helvetica-3d" x="55.615234"/>
     <use xlink:href="#Helvetica-34" x="114.013672"/>
     <use xlink:href="#Helvetica-20" x="169.628906"/>
     <use xlink:href="#Helvetica-68" x="197.412109"/>
     <use xlink:href="#Helvetica-65" x="253.027344"/>
     <use xlink:href="#Helvetica-61" x="308.642578"/>
     <use xlink:href="#Helvetica-64" x="364.257812"/>
     <use xlink:href="#Helvetica-73" x="419.873047"/>
     <use xlink:href="#Helvetica-2c" x="469.873047"/>
     <use xlink:href="#Helvetica-20" x="497.65625"/>
     <use xlink:href="#Helvetica-64" x="525.439453"/>
     <use xlink:href="#Helvetica-5f" x="581.054688"/>
     <use xlink:href="#Helvetica-6b" x="636.669922"/>
     <use xlink:href="#Helvetica-20" x="686.669922"/>
     <use xlink:href="#Helvetica-3d" x="714.453125"/>
     <use xlink:href="#Helvetica-20" x="772.851562"/>
     <use xlink:href="#Helvetica-64" x="800.634766"/>
     <use xlink:href="#Helvetica-5f" x="856.25"/>
     <use xlink:href="#Helvetica-6d" x="911.865234"/>
     <use xlink:href="#Helvetica-6f" x="995.166016"/>
     <use xlink:href="#Helvetica-64" x="1050.78125"/>
     <use xlink:href="#Helvetica-65" x="1106.396484"/>
     <use xlink:href="#Helvetica-6c" x="1162.011719"/>
     <use xlink:href="#Helvetica-20" x="1184.228516"/>
     <use xlink:href="#Helvetica-2f" x="1212.011719"/>
     <use xlink:href="#Helvetica-20" x="1239.794922"/>
     <use xlink:href="#Helvetica-68" x="1267.578125"/>
    </g>
   </g>
   <g id="patch_12">
    <path d="M 234 194.918595 
Q 234 195.374798 234 194.489359 
" style="fill: none; stroke: #444444; stroke-width: 1.2; stroke-linecap: round"/>
    <path d="M 236.2 190.089359 
L 234 194.489359 
L 231.8 190.089359 
" style="fill: none; stroke: #444444; stroke-width: 1.2; stroke-linecap: round"/>
   </g>
   <g id="text_6">
    <!-- Dropout 0.1 + Residual -->
    <g transform="translate(182.721094 227.49325) scale(0.1 -0.1)">
     <defs>
      <path id="Helvetica-44" d="M 2250 531 
Q 2566 531 2769 597 
Q 3131 719 3363 1066 
Q 3547 1344 3628 1778 
Q 3675 2038 3675 2259 
Q 3675 3113 3336 3584 
Q 2997 4056 2244 4056 
L 1141 4056 
L 1141 531 
L 2250 531 
z
M 516 4591 
L 2375 4591 
Q 3322 4591 3844 3919 
Q 4309 3313 4309 2366 
Q 4309 1634 4034 1044 
Q 3550 0 2369 0 
L 516 0 
L 516 4591 
z
" transform="scale(0.015625)"/>
      <path id="Helvetica-30" d="M 1731 4475 
Q 2600 4475 2988 3759 
Q 3288 3206 3288 2244 
Q 3288 1331 3016 734 
Q 2622 -122 1728 -122 
Q 922 -122 528 578 
Q 200 1163 200 2147 
Q 200 2909 397 3456 
Q 766 4475 1731 4475 
z
M 1725 391 
Q 2163 391 2422 778 
Q 2681 1166 2681 2222 
Q 2681 2984 2493 3476 
Q 2306 3969 1766 3969 
Q 1269 3969 1039 3501 
Q 809 3034 809 2125 
Q 809 1441 956 1025 
Q 1181 391 1725 391 
z
" transform="scale(0.015625)"/>
      <path id="Helvetica-31" d="M 613 3169 
L 613 3600 
Q 1222 3659 1462 3798 
Q 1703 3938 1822 4456 
L 2266 4456 
L 2266 0 
L 1666 0 
L 1666 3169 
L 613 3169 
z
" transform="scale(0.015625)"/>
      <path id="Helvetica-2b" d="M 288 1369 
L 288 1894 
L 1650 1894 
L 1650 3266 
L 2184 3266 
L 2184 1894 
L 3547 1894 
L 3547 1369 
L 2184 1369 
L 2184 0 
L 1650 0 
L 1650 1369 
L 288 1369 
z
" transform="scale(0.015625)"/>
      <path id="Helvetica-52" d="M 2622 2488 
Q 3059 2488 3314 2663 
Q 3569 2838 3569 3294 
Q 3569 3784 3213 3963 
Q 3022 4056 2703 4056 
L 1184 4056 
L 1184 2488 
L 2622 2488 
z
M 563 4591 
L 2688 4591 
Q 3213 4591 3553 4438 
Q 4200 4144 4200 3353 
Q 4200 2941 4029 2678 
Q 3859 2416 3553 2256 
Q 3822 2147 3958 1969 
Q 4094 1791 4109 1391 
L 4131 775 
Q 4141 513 4175 384 
Q 4231 166 4375 103 
L 4375 0 
L 3613 0 
Q 3581 59 3562 153 
Q 3544 247 3531 516 
L 3494 1281 
Q 3472 1731 3159 1884 
Q 2981 1969 2600 1969 
L 1184 1969 
L 1184 0 
L 563 0 
L 563 4591 
z
" transform="scale(0.015625)"/>
     </defs>
     <use xlink:href="#Helvetica-44"/>
     <use xlink:href="#Helvetica-72" x="72.216797"/>
     <use xlink:href="#Helvetica-6f" x="105.517578"/>
     <use xlink:href="#Helvetica-70" x="161.132812"/>
     <use xlink:href="#Helvetica-6f" x="216.748047"/>
     <use xlink:href="#Helvetica-75" x="272.363281"/>
     <use xlink:href="#Helvetica-74" x="327.978516"/>
     <use xlink:href="#Helvetica-20" x="355.761719"/>
     <use xlink:href="#Helvetica-30" x="383.544922"/>
     <use xlink:href="#Helvetica-2e" x="439.160156"/>
     <use xlink:href="#Helvetica-31" x="466.943359"/>
     <use xlink:href="#Helvetica-20" x="522.558594"/>
     <use xlink:href="#Helvetica-2b" x="550.341797"/>
     <use xlink:href="#Helvetica-20" x="608.740234"/>
     <use xlink:href="#Helvetica-52" x="636.523438"/>
     <use xlink:href="#Helvetica-65" x="708.740234"/>
     <use xlink:href="#Helvetica-73" x="764.355469"/>
     <use xlink:href="#Helvetica-69" x="814.355469"/>
     <use xlink:href="#Helvetica-64" x="836.572266"/>
     <use xlink:href="#Helvetica-75" x="892.1875"/>
     <use xlink:href="#Helvetica-61" x="947.802734"/>
     <use xlink:href="#Helvetica-6c" x="1003.417969"/>
    </g>
   </g>
   <g id="patch_13">
    <path d="M 234 244.814595 
Q 234 245.270798 234 244.385359 
" style="fill: none; stroke: #444444; stroke-width: 1.2; stroke-linecap: round"/>
    <path d="M 236.2 239.985359 
L 234 244.385359 
L 231.8 239.985359 
" style="fill: none; stroke: #444444; stroke-width: 1.2; stroke-linecap: round"/>
   </g>
   <g id="text_7">
    <!-- LayerNorm (pre-norm) -->
    <g transform="translate(184.272656 277.406438) scale(0.1 -0.1)">
     <use xlink:href="#Helvetica-4c"/>
     <use xlink:href="#Helvetica-61" x="55.615234"/>
     <use xlink:href="#Helvetica-79" x="111.230469"/>
     <use xlink:href="#Helvetica-65" x="161.230469"/>
     <use xlink:href="#Helvetica-72" x="216.845703"/>
     <use xlink:href="#Helvetica-4e" x="250.146484"/>
     <use xlink:href="#Helvetica-6f" x="322.363281"/>
     <use xlink:href="#Helvetica-72" x="377.978516"/>
     <use xlink:href="#Helvetica-6d" x="411.279297"/>
     <use xlink:href="#Helvetica-20" x="494.580078"/>
     <use xlink:href="#Helvetica-28" x="522.363281"/>
     <use xlink:href="#Helvetica-70" x="555.664062"/>
     <use xlink:href="#Helvetica-72" x="611.279297"/>
     <use xlink:href="#Helvetica-65" x="644.580078"/>
     <use xlink:href="#Helvetica-2d" x="700.195312"/>
     <use xlink:href="#Helvetica-6e" x="733.496094"/>
     <use xlink:href="#Helvetica-6f" x="789.111328"/>
     <use xlink:href="#Helvetica-72" x="844.726562"/>
     <use xlink:href="#Helvetica-6d" x="878.027344"/>
     <use xlink:href="#Helvetica-29" x="961.328125"/>
    </g>
   </g>
   <g id="patch_14">
    <path d="M 234 294.710595 
Q 234 295.166798 234 294.281359 
" style="fill: none; stroke: #444444; stroke-width: 1.2; stroke-linecap: round"/>
    <path d="M 236.2 289.881359 
L 234 294.281359 
L 231.8 289.881359 
" style="fill: none; stroke: #444444; stroke-width: 1.2; stroke-linecap: round"/>
   </g>
   <g id="text_8">
    <!-- FFN: Linear, GELU, Linear -->
    <g transform="translate(174.535937 321.883219) scale(0.1 -0.1)">
     <defs>
      <path id="Helvetica-46" d="M 547 4591 
L 3731 4591 
L 3731 4028 
L 1169 4028 
L 1169 2634 
L 3422 2634 
L 3422 2088 
L 1169 2088 
L 1169 0 
L 547 0 
L 547 4591 
z
" transform="scale(0.015625)"/>
      <path id="Helvetica-3a" d="M 709 3303 
L 1363 3303 
L 1363 2622 
L 709 2622 
L 709 3303 
z
M 709 681 
L 1363 681 
L 1363 0 
L 709 0 
L 709 681 
z
" transform="scale(0.015625)"/>
      <path id="Helvetica-47" d="M 2472 4709 
Q 3119 4709 3591 4459 
Q 4275 4100 4428 3200 
L 3813 3200 
Q 3700 3703 3347 3933 
Q 2994 4163 2456 4163 
Q 1819 4163 1383 3684 
Q 947 3206 947 2259 
Q 947 1441 1306 927 
Q 1666 413 2478 413 
Q 3100 413 3508 773 
Q 3916 1134 3925 1941 
L 2488 1941 
L 2488 2456 
L 4503 2456 
L 4503 0 
L 4103 0 
L 3953 591 
Q 3638 244 3394 109 
Q 2984 -122 2353 -122 
Q 1538 -122 950 406 
Q 309 1069 309 2225 
Q 309 3378 934 4059 
Q 1528 4709 2472 4709 
z
M 2369 4716 
L 2369 4716 
z
" transform="scale(0.015625)"/>
      <path id="Helvetica-55" d="M 1163 4591 
L 1163 1753 
Q 1163 1253 1350 922 
Q 1628 422 2288 422 
Q 3078 422 3363 963 
Q 3516 1256 3516 1753 
L 3516 4591 
L 4147 4591 
L 4147 2013 
Q 4147 1166 3919 709 
Q 3500 -122 2338 -122 
Q 1175 -122 759 709 
Q 531 1166 531 2013 
L 531 4591 
L 1163 4591 
z
M 2341 4591 
L 2341 4591 
z
" transform="scale(0.015625)"/>
     </defs>
     <use xlink:href="#Helvetica-46"/>
     <use xlink:href="#Helvetica-46" x="61.083984"/>
     <use xlink:href="#Helvetica-4e" x="122.167969"/>
     <use xlink:href="#Helvetica-3a" x="194.384766"/>
     <use xlink:href="#Helvetica-20" x="222.167969"/>
     <use xlink:href="#Helvetica-4c" x="249.951172"/>
     <use xlink:href="#Helvetica-69" x="305.566406"/>
     <use xlink:href="#Helvetica-6e" x="327.783203"/>
     <use xlink:href="#Helvetica-65" x="383.398438"/>
     <use xlink:href="#Helvetica-61" x="439.013672"/>
     <use xlink:href="#Helvetica-72" x="494.628906"/>
     <use xlink:href="#Helvetica-2c" x="527.929688"/>
     <use xlink:href="#Helvetica-20" x="555.712891"/>
     <use xlink:href="#Helvetica-47" x="583.496094"/>
     <use xlink:href="#Helvetica-45" x="661.279297"/>
     <use xlink:href="#Helvetica-4c" x="727.978516"/>
     <use xlink:href="#Helvetica-55" x="783.59375"/>
     <use xlink:href="#Helvetica-2c" x="855.810547"/>
     <use xlink:href="#Helvetica-20" x="883.59375"/>
     <use xlink:href="#Helvetica-4c" x="911.376953"/>
     <use xlink:href="#Helvetica-69" x="966.992188"/>
     <use xlink:href="#Helvetica-6e" x="989.208984"/>
     <use xlink:href="#Helvetica-65" x="1044.824219"/>
     <use xlink:href="#Helvetica-61" x="1100.439453"/>
     <use xlink:href="#Helvetica-72" x="1156.054688"/>
    </g>
    <!-- (d_model -&gt; 4 x d_model -&gt; d_model) -->
    <g transform="translate(150.350781 332.663844) scale(0.1 -0.1)">
     <defs>
      <path id="Helvetica-3e" d="M 3741 1369 
L 88 -59 
L 88 503 
L 3072 1634 
L 88 2763 
L 88 3325 
L 3741 1894 
L 3741 1369 
z
" transform="scale(0.015625)"/>
     </defs>
     <use xlink:href="#Helvetica-28"/>
     <use xlink:href="#Helvetica-64" x="33.300781"/>
     <use xlink:href="#Helvetica-5f" x="88.916016"/>
     <use xlink:href="#Helvetica-6d" x="144.53125"/>
     <use xlink:href="#Helvetica-6f" x="227.832031"/>
     <use xlink:href="#Helvetica-64" x="283.447266"/>
     <use xlink:href="#Helvetica-65" x="339.0625"/>
     <use xlink:href="#Helvetica-6c" x="394.677734"/>
     <use xlink:href="#Helvetica-20" x="416.894531"/>
     <use xlink:href="#Helvetica-2d" x="444.677734"/>
     <use xlink:href="#Helvetica-3e" x="477.978516"/>
     <use xlink:href="#Helvetica-20" x="536.376953"/>
     <use xlink:href="#Helvetica-34" x="564.160156"/>
     <use xlink:href="#Helvetica-20" x="619.775391"/>
     <use xlink:href="#Helvetica-78" x="647.558594"/>
     <use xlink:href="#Helvetica-20" x="697.558594"/>
     <use xlink:href="#Helvetica-64" x="725.341797"/>
     <use xlink:href="#Helvetica-5f" x="780.957031"/>
     <use xlink:href="#Helvetica-6d" x="836.572266"/>
     <use xlink:href="#Helvetica-6f" x="919.873047"/>
     <use xlink:href="#Helvetica-64" x="975.488281"/>
     <use xlink:href="#Helvetica-65" x="1031.103516"/>
     <use xlink:href="#Helvetica-6c" x="1086.71875"/>
     <use xlink:href="#Helvetica-20" x="1108.935547"/>
     <use xlink:href="#Helvetica-2d" x="1136.71875"/>
     <use xlink:href="#Helvetica-3e" x="1170.019531"/>
     <use xlink:href="#Helvetica-20" x="1228.417969"/>
     <use xlink:href="#Helvetica-64" x="1256.201172"/>
     <use xlink:href="#Helvetica-5f" x="1311.816406"/>
     <use xlink:href="#Helvetica-6d" x="1367.431641"/>
     <use xlink:href="#Helvetica-6f" x="1450.732422"/>
     <use xlink:href="#Helvetica-64" x="1506.347656"/>
     <use xlink:href="#Helvetica-65" x="1561.962891"/>
     <use xlink:href="#Helvetica-6c" x="1617.578125"/>
     <use xlink:href="#Helvetica-29" x="1639.794922"/>
    </g>
   </g>
   <g id="patch_15">
    <path d="M 234 344.606595 
Q 234 345.062798 234 344.177359 
" style="fill: none; stroke: #444444; stroke-width: 1.2; stroke-linecap: round"/>
    <path d="M 236.2 339.777359 
L 234 344.177359 
L 231.8 339.777359 
" style="fill: none; stroke: #444444; stroke-width: 1.2; stroke-linecap: round"/>
   </g>
   <g id="text_9">
    <!-- Dropout 0.1 + Residual -->
    <g transform="translate(182.721094 377.18125) scale(0.1 -0.1)">
     <use xlink:href="#Helvetica-44"/>
     <use xlink:href="#Helvetica-72" x="72.216797"/>
     <use xlink:href="#Helvetica-6f" x="105.517578"/>
     <use xlink:href="#Helvetica-70" x="161.132812"/>
     <use xlink:href="#Helvetica-6f" x="216.748047"/>
     <use xlink:href="#Helvetica-75" x="272.363281"/>
     <use xlink:href="#Helvetica-74" x="327.978516"/>
     <use xlink:href="#Helvetica-20" x="355.761719"/>
     <use xlink:href="#Helvetica-30" x="383.544922"/>
     <use xlink:href="#Helvetica-2e" x="439.160156"/>
     <use xlink:href="#Helvetica-31" x="466.943359"/>
     <use xlink:href="#Helvetica-20" x="522.558594"/>
     <use xlink:href="#Helvetica-2b" x="550.341797"/>
     <use xlink:href="#Helvetica-20" x="608.740234"/>
     <use xlink:href="#Helvetica-52" x="636.523438"/>
     <use xlink:href="#Helvetica-65" x="708.740234"/>
     <use xlink:href="#Helvetica-73" x="764.355469"/>
     <use xlink:href="#Helvetica-69" x="814.355469"/>
     <use xlink:href="#Helvetica-64" x="836.572266"/>
     <use xlink:href="#Helvetica-75" x="892.1875"/>
     <use xlink:href="#Helvetica-61" x="947.802734"/>
     <use xlink:href="#Helvetica-6c" x="1003.417969"/>
    </g>
   </g>
   <g id="patch_16">
    <path d="M 234 394.502595 
Q 234 394.958798 234 394.073359 
" style="fill: none; stroke: #444444; stroke-width: 1.2; stroke-linecap: round"/>
    <path d="M 236.2 389.673359 
L 234 394.073359 
L 231.8 389.673359 
" style="fill: none; stroke: #444444; stroke-width: 1.2; stroke-linecap: round"/>
   </g>
   <g id="text_10">
    <!-- Output  x'  (B, L, d_model) -->
    <g transform="translate(175.800781 427.163188) scale(0.1 -0.1)">
     <defs>
      <path id="Helvetica-4f" d="M 2469 4716 
Q 3684 4716 4269 3934 
Q 4725 3325 4725 2375 
Q 4725 1347 4203 666 
Q 3591 -134 2456 -134 
Q 1397 -134 791 566 
Q 250 1241 250 2272 
Q 250 3203 713 3866 
Q 1306 4716 2469 4716 
z
M 2531 422 
Q 3353 422 3720 1011 
Q 4088 1600 4088 2366 
Q 4088 3175 3664 3669 
Q 3241 4163 2506 4163 
Q 1794 4163 1344 3673 
Q 894 3184 894 2231 
Q 894 1469 1280 945 
Q 1666 422 2531 422 
z
M 2488 4716 
L 2488 4716 
z
" transform="scale(0.015625)"/>
      <path id="Helvetica-27" d="M 1056 4591 
L 953 2753 
L 591 2753 
L 488 4591 
L 1056 4591 
z
" transform="scale(0.015625)"/>
     </defs>
     <use xlink:href="#Helvetica-4f"/>
     <use xlink:href="#Helvetica-75" x="77.783203"/>
     <use xlink:href="#Helvetica-74" x="133.398438"/>
     <use xlink:href="#Helvetica-70" x="161.181641"/>
     <use xlink:href="#Helvetica-75" x="216.796875"/>
     <use xlink:href="#Helvetica-74" x="272.412109"/>
     <use xlink:href="#Helvetica-20" x="300.195312"/>
     <use xlink:href="#Helvetica-20" x="327.978516"/>
     <use xlink:href="#Helvetica-78" x="355.761719"/>
     <use xlink:href="#Helvetica-27" x="405.761719"/>
     <use xlink:href="#Helvetica-20" x="424.853516"/>
     <use xlink:href="#Helvetica-20" x="452.636719"/>
     <use xlink:href="#Helvetica-28" x="480.419922"/>
     <use xlink:href="#Helvetica-42" x="513.720703"/>
     <use xlink:href="#Helvetica-2c" x="580.419922"/>
     <use xlink:href="#Helvetica-20" x="608.203125"/>
     <use xlink:href="#Helvetica-4c" x="635.986328"/>
     <use xlink:href="#Helvetica-2c" x="691.601562"/>
     <use xlink:href="#Helvetica-20" x="719.384766"/>
     <use xlink:href="#Helvetica-64" x="747.167969"/>
     <use xlink:href="#Helvetica-5f" x="802.783203"/>
     <use xlink:href="#Helvetica-6d" x="858.398438"/>
     <use xlink:href="#Helvetica-6f" x="941.699219"/>
     <use xlink:href="#Helvetica-64" x="997.314453"/>
     <use xlink:href="#Helvetica-65" x="1052.929688"/>
     <use xlink:href="#Helvetica-6c" x="1108.544922"/>
     <use xlink:href="#Helvetica-29" x="1130.761719"/>
    </g>
   </g>
  </g>
 </g>
 <defs>
  <clipPath id="p06223ac68c">
   <rect x="10.8" y="10.8" width="446.4" height="498.96"/>
  </clipPath>
 </defs>
</svg>
